<?xml version="1.0" encoding="iso-8859-1"?>
<!-- Generator: Adobe Illustrator 19.0.0, SVG Export Plug-In . SVG Version: 6.00 Build 0)  -->
<svg version="1.1" id="Layer_1" xmlns="http://www.w3.org/2000/svg" xmlns:xlink="http://www.w3.org/1999/xlink" x="0px" y="0px"
	 viewBox="0 0 512 512" style="enable-background:new 0 0 512 512;" xml:space="preserve">
<g>
	<g>
		<path d="M256,0C187.615,0,123.333,26.625,74.979,74.979C26.625,123.333,0,187.615,0,256s26.625,132.667,74.979,181.021
			C123.333,485.375,187.615,512,256,512c141.156,0,256-114.844,256-256S397.156,0,256,0z M266.667,21.859
			c120.897,5.471,218.316,102.576,223.76,223.474H383.563c-5.146-62.081-54.813-111.667-116.896-116.82V21.859z M362.667,256
			c0,58.813-47.854,106.667-106.667,106.667c-28.479,0-55.271-11.094-75.427-31.24c-20.146-20.156-31.24-46.948-31.24-75.427
			s11.094-55.271,31.24-75.427c20.156-20.146,46.948-31.24,75.427-31.24C314.813,149.333,362.667,197.188,362.667,256z
			 M245.333,21.573v106.865c-26.635,2.177-51.604,12.521-71.99,29.823L97.771,82.688C138.49,45.438,190.198,24.021,245.333,21.573z
			 M21.333,256c0-59.102,21.928-114.699,61.555-158.029l75.428,75.428C138.738,196.487,128,225.406,128,256
			c0,30.604,10.667,59.573,30.26,82.656l-75.573,75.573C43.042,370.896,21.333,315.115,21.333,256z M256,490.667
			c-59.102,0-114.699-21.928-158.029-61.555l75.428-75.428C196.487,373.262,225.406,384,256,384
			c66.983,0,122.01-51.734,127.46-117.333h106.667C484.492,391.096,381.796,490.667,256,490.667z"/>
	</g>
</g>
<g>
</g>
<g>
</g>
<g>
</g>
<g>
</g>
<g>
</g>
<g>
</g>
<g>
</g>
<g>
</g>
<g>
</g>
<g>
</g>
<g>
</g>
<g>
</g>
<g>
</g>
<g>
</g>
<g>
</g>
</svg>
