<?xml version="1.0" encoding="iso-8859-1"?>
<!-- Generator: Adobe Illustrator 19.0.0, SVG Export Plug-In . SVG Version: 6.00 Build 0)  -->
<svg version="1.1" id="Capa_1" xmlns="http://www.w3.org/2000/svg" xmlns:xlink="http://www.w3.org/1999/xlink" x="0px" y="0px"
	 viewBox="0 0 480.212 480.212" style="enable-background:new 0 0 480.212 480.212;" xml:space="preserve">
<g>
	<g>
		<g>
			<path d="M240.106,432c-66.274,0-120-53.726-120-120h-16c0,75.111,60.889,136,136,136s136-60.889,136-136h-16
				C360.106,378.274,306.38,432,240.106,432z"/>
			<path d="M405.03,280.18c-13.052-67.271-65.654-119.872-132.924-132.924V48h16c4.418,0,8-3.582,8-8V8c0-4.418-3.582-8-8-8h-96
				c-4.418,0-8,3.582-8,8v32c0,4.418,3.582,8,8,8h16v99.256C117.021,164.929,57.508,253.095,75.182,344.18
				c17.673,91.085,105.839,150.597,196.924,132.924S422.703,371.265,405.03,280.18z M200.106,32V16h80v16H200.106z M390.364,334.838
				C379.115,409.128,315.243,464.033,240.106,464c-83.894,0.037-151.934-67.943-151.97-151.838
				c-0.033-75.137,54.872-139.009,129.162-150.258c3.914-0.59,6.809-3.954,6.808-7.912V48h32v105.992
				c-0.001,3.958,2.894,7.322,6.808,7.912C345.863,174.464,402.924,251.889,390.364,334.838z"/>
			<path d="M325.41,312c-6.096,0-9.392-4.496-14.696-12.44c-5.808-8.72-13.008-19.56-28.008-19.56s-22.184,10.84-28,19.56
				c-5.288,7.944-8.584,12.44-14.664,12.44c-6.08,0-9.368-4.496-14.664-12.44c-5.8-8.712-13.032-19.56-27.968-19.56
				c-14.936,0-22.176,10.84-28,19.56c-5.304,7.944-8.576,12.44-14.656,12.44s-9.376-4.496-14.664-12.44
				c-5.816-8.712-13.04-19.56-27.984-19.56v16c6.08,0,9.376,4.496,14.664,12.44c5.808,8.72,13.04,19.56,28,19.56
				s22.176-10.84,28-19.56c5.256-7.944,8.536-12.44,14.64-12.44s9.36,4.496,14.656,12.44c5.808,8.712,13.032,19.56,28,19.56
				s22.176-10.84,28-19.56c5.256-7.944,8.552-12.44,14.64-12.44s9.4,4.496,14.696,12.44c5.816,8.72,13.048,19.56,28,19.56
				c14.952,0,22.192-10.84,28-19.56c5.312-7.944,8.608-12.44,14.704-12.44v-16c-14.952,0-22.184,10.84-28,19.56
				C334.802,307.504,331.506,312,325.41,312z"/>
		</g>
	</g>
</g>
<g>
</g>
<g>
</g>
<g>
</g>
<g>
</g>
<g>
</g>
<g>
</g>
<g>
</g>
<g>
</g>
<g>
</g>
<g>
</g>
<g>
</g>
<g>
</g>
<g>
</g>
<g>
</g>
<g>
</g>
</svg>
